<svg width="319" height="224" viewBox="0 0 319 224" fill="none" xmlns="http://www.w3.org/2000/svg">
<path d="M160 71V61L182 71H174V103H181L160 113V103H168V97H172V89H167V84H159V89H153L165 73V71H160Z" fill="#4CC87C"/>
<path d="M184 83V79H199L215 87L199 95H184V90H197V83H184Z" fill="#4CC87C"/>
<path d="M119 79L103 87L124 97H126V79H119Z" fill="#3B9D65"/>
<path d="M159 61L137 71H145V79H136V102L159 113V103H158V97H142V90L156 71H159V61Z" fill="#3B9D65"/>
<path d="M168.5 172.5H170.5L315.5 105.744V67.5L170.5 0.570862H168.5V36.5L275.5 86.5L168.5 136.5V172.5Z" fill="url(#paint0_linear_5_26)"/>
<path d="M314.5 104L276.5 86.5L242.5 103L314.5 104Z" fill="#3C9A54"/>
<path d="M2 68L150 0L149.5 36.5L41 86.5L149.5 137V172.5L2 105V68Z" fill="url(#paint1_linear_5_26)"/>
<path d="M40.5 86.5L3.5 68.5V68L66.5 74.5L40.5 86.5Z" fill="#2D7B5A"/>
<path d="M11.1404 209V197.675H5.19043V194.275H22.0154V197.675H15.9904V209H11.1404ZM24.5127 209V194.3H40.5627V197.7H29.3877V199.775H37.6627V203.25H29.3877V205.575H40.1627L41.6627 208.725C41.6627 208.792 41.4377 208.858 40.9877 208.925C40.5377 208.975 39.7627 209 38.6627 209H24.5127ZM48.991 209C47.2077 209 45.916 208.608 45.116 207.825C44.316 207.042 43.916 205.775 43.916 204.025V199.45C43.916 197.65 44.3577 196.342 45.241 195.525C46.1243 194.692 47.3743 194.275 48.991 194.275H56.291C57.441 194.275 58.316 194.342 58.916 194.475C59.5327 194.592 59.841 194.717 59.841 194.85L59.066 197.975C58.6493 197.925 57.8327 197.875 56.616 197.825C55.416 197.758 53.8993 197.725 52.066 197.725H50.791C50.0077 197.725 49.4743 197.875 49.191 198.175C48.9243 198.458 48.791 198.9 48.791 199.5V203.775C48.791 204.342 48.9077 204.783 49.141 205.1C49.391 205.4 49.941 205.55 50.791 205.55H51.816C54.1993 205.55 56.016 205.525 57.266 205.475C58.516 205.408 59.266 205.342 59.516 205.275L61.041 207.975C61.041 208.058 60.866 208.183 60.516 208.35C60.1827 208.517 59.6077 208.667 58.791 208.8C57.991 208.933 56.8743 209 55.441 209H48.991ZM63.5508 209V194.3H68.3758V199.9H76.1508V194.3H80.9508V209H76.1508V203.3H68.3758V209H63.5508ZM90.7051 209V196.3L90.4551 194.3H106.555V197.7H95.5801V199.975H103.855V203.45H95.5801V209H90.7051ZM113.884 209C112.117 209 110.825 208.608 110.009 207.825C109.209 207.025 108.809 205.758 108.809 204.025V199.25C108.809 197.55 109.209 196.3 110.009 195.5C110.809 194.7 112.1 194.3 113.884 194.3H121.184C122.934 194.3 124.209 194.7 125.009 195.5C125.825 196.3 126.234 197.55 126.234 199.25V204.025C126.234 205.758 125.825 207.025 125.009 207.825C124.192 208.608 122.917 209 121.184 209H113.884ZM115.609 205.6H119.484C120.784 205.6 121.434 205.008 121.434 203.825V199.45C121.434 198.283 120.784 197.7 119.484 197.7H115.609C114.942 197.7 114.442 197.833 114.109 198.1C113.775 198.367 113.609 198.817 113.609 199.45V203.825C113.609 204.442 113.775 204.892 114.109 205.175C114.442 205.458 114.942 205.6 115.609 205.6ZM146.206 209.25C145.54 209.25 144.798 209.15 143.981 208.95C143.165 208.733 142.356 208.217 141.556 207.4L140.506 206.35C140.006 205.85 139.523 205.442 139.056 205.125C138.606 204.808 138.09 204.575 137.506 204.425C136.923 204.258 136.19 204.175 135.306 204.175H135.106V209H130.231V196.3L129.981 194.275H141.556C142.623 194.275 143.481 194.408 144.131 194.675C144.798 194.925 145.306 195.267 145.656 195.7C146.023 196.117 146.273 196.592 146.406 197.125C146.54 197.658 146.606 198.2 146.606 198.75V199.225C146.606 200.225 146.348 201.125 145.831 201.925C145.331 202.708 144.531 203.267 143.431 203.6C143.848 203.85 144.24 204.108 144.606 204.375C144.99 204.625 145.423 204.892 145.906 205.175C146.456 205.492 146.965 205.725 147.431 205.875C147.915 206.008 148.315 206.092 148.631 206.125C148.948 206.158 149.131 206.175 149.181 206.175L148.431 209C148.231 209.05 147.923 209.1 147.506 209.15C147.106 209.217 146.673 209.25 146.206 209.25ZM138.006 200.85C138.423 200.85 138.823 200.842 139.206 200.825C139.606 200.808 139.965 200.783 140.281 200.75C140.848 200.683 141.231 200.508 141.431 200.225C141.648 199.925 141.756 199.567 141.756 199.15V198.875C141.756 198.508 141.648 198.225 141.431 198.025C141.231 197.825 140.856 197.725 140.306 197.725H135.106V200.75C135.523 200.767 135.981 200.792 136.481 200.825C136.981 200.842 137.49 200.85 138.006 200.85ZM156.935 209V194.3H172.985V197.7H161.81V199.775H170.085V203.25H161.81V205.575H172.585L174.085 208.725C174.085 208.792 173.86 208.858 173.41 208.925C172.96 208.975 172.185 209 171.085 209H156.935ZM181.338 209L174.588 194.325H179.863L183.563 203.175L184.238 205.225H184.463L185.113 203.175L188.888 194.325H194.038L193.638 195.825L187.363 209H181.338ZM196.046 209V194.3H212.096V197.7H200.921V199.775H209.196V203.25H200.921V205.575H211.696L213.196 208.725C213.196 208.792 212.971 208.858 212.521 208.925C212.071 208.975 211.296 209 210.196 209H196.046ZM231.924 209.25C231.258 209.25 230.516 209.15 229.699 208.95C228.883 208.733 228.074 208.217 227.274 207.4L226.224 206.35C225.724 205.85 225.241 205.442 224.774 205.125C224.324 204.808 223.808 204.575 223.224 204.425C222.641 204.258 221.908 204.175 221.024 204.175H220.824V209H215.949V196.3L215.699 194.275H227.274C228.341 194.275 229.199 194.408 229.849 194.675C230.516 194.925 231.024 195.267 231.374 195.7C231.741 196.117 231.991 196.592 232.124 197.125C232.258 197.658 232.324 198.2 232.324 198.75V199.225C232.324 200.225 232.066 201.125 231.549 201.925C231.049 202.708 230.249 203.267 229.149 203.6C229.566 203.85 229.958 204.108 230.324 204.375C230.708 204.625 231.141 204.892 231.624 205.175C232.174 205.492 232.683 205.725 233.149 205.875C233.633 206.008 234.033 206.092 234.349 206.125C234.666 206.158 234.849 206.175 234.899 206.175L234.149 209C233.949 209.05 233.641 209.1 233.224 209.15C232.824 209.217 232.391 209.25 231.924 209.25ZM223.724 200.85C224.141 200.85 224.541 200.842 224.924 200.825C225.324 200.808 225.683 200.783 225.999 200.75C226.566 200.683 226.949 200.508 227.149 200.225C227.366 199.925 227.474 199.567 227.474 199.15V198.875C227.474 198.508 227.366 198.225 227.149 198.025C226.949 197.825 226.574 197.725 226.024 197.725H220.824V200.75C221.241 200.767 221.699 200.792 222.199 200.825C222.699 200.842 223.208 200.85 223.724 200.85ZM240.97 209V202.925L233.67 194.3H239.695L242.17 197.725L243.32 199.55H243.57L244.72 197.725L247.145 194.3H253.17L252.195 195.8L245.795 203.025V209H240.97ZM258.854 209C257.088 209 255.796 208.608 254.979 207.825C254.179 207.025 253.779 205.758 253.779 204.025V199.25C253.779 197.55 254.179 196.3 254.979 195.5C255.779 194.7 257.071 194.3 258.854 194.3H266.154C267.904 194.3 269.179 194.7 269.979 195.5C270.796 196.3 271.204 197.55 271.204 199.25V204.025C271.204 205.758 270.796 207.025 269.979 207.825C269.163 208.608 267.888 209 266.154 209H258.854ZM260.579 205.6H264.454C265.754 205.6 266.404 205.008 266.404 203.825V199.45C266.404 198.283 265.754 197.7 264.454 197.7H260.579C259.913 197.7 259.413 197.833 259.079 198.1C258.746 198.367 258.579 198.817 258.579 199.45V203.825C258.579 204.442 258.746 204.892 259.079 205.175C259.413 205.458 259.913 205.6 260.579 205.6ZM275.202 209V196.3L274.952 194.3H279.552L286.602 201.45L287.577 202.55H287.852V194.3H292.652V209H288.477L281.227 201.775L280.252 200.6H280.002V209H275.202ZM296.656 209V194.3H312.706V197.7H301.531V199.775H309.806V203.25H301.531V205.575H312.306L313.806 208.725C313.806 208.792 313.581 208.858 313.131 208.925C312.681 208.975 311.906 209 310.806 209H296.656Z" fill="url(#paint2_linear_5_26)"/>
<defs>
<linearGradient id="paint0_linear_5_26" x1="377.5" y1="158" x2="168" y2="-59" gradientUnits="userSpaceOnUse">
<stop stop-color="#4ECB7C"/>
<stop offset="1" stop-color="#27653E"/>
</linearGradient>
<linearGradient id="paint1_linear_5_26" x1="283" y1="189.5" x2="1.99999" y2="-27.5" gradientUnits="userSpaceOnUse">
<stop stop-color="#3DA36C"/>
<stop offset="1" stop-color="#3DA882"/>
</linearGradient>
<linearGradient id="paint2_linear_5_26" x1="398.589" y1="174.263" x2="-30.6068" y2="190.52" gradientUnits="userSpaceOnUse">
<stop stop-color="#4ECB7C"/>
<stop offset="1" stop-color="#27653E"/>
</linearGradient>
</defs>
</svg>
